<?xml version="1.0" standalone="no"?>
<!DOCTYPE svg PUBLIC "-//W3C//DTD SVG 20010904//EN"
 "http://www.w3.org/TR/2001/REC-SVG-20010904/DTD/svg10.dtd">
<svg version="1.0" xmlns="http://www.w3.org/2000/svg"
 width="633.000000pt" height="500.000000pt" viewBox="0 0 633.000000 500.000000"
 preserveAspectRatio="xMidYMid meet">
<metadata>
Created by potrace 1.16, written by Peter Selinger 2001-2019
</metadata>
<g transform="translate(0.000000,500.000000) scale(0.100000,-0.100000)"
fill="#000000" stroke="none">
<path d="M740 2965 l0 -1965 1970 0 1970 0 0 1965 0 1965 -1970 0 -1970 0 0
-1965z m729 1760 c141 -166 265 -256 564 -410 170 -88 189 -101 207 -136 37
-71 17 -151 -50 -196 -45 -32 -100 -29 -207 8 -304 106 -550 292 -827 629 -43
52 -83 99 -88 105 -15 16 68 -215 118 -329 160 -367 405 -652 732 -856 44 -27
148 -83 232 -126 138 -69 155 -81 181 -122 74 -116 6 -248 -126 -245 -65 2
-188 42 -284 94 -208 112 -390 254 -620 486 l-173 175 77 -151 c290 -567 684
-910 1249 -1086 129 -40 177 -72 196 -131 23 -69 -14 -144 -87 -176 -43 -19
-47 -19 -126 -3 -325 65 -707 288 -1015 593 -51 51 -90 87 -86 80 28 -47 201
-280 269 -363 321 -391 691 -603 1264 -726 74 -16 145 -36 158 -44 91 -60 81
-207 -17 -258 -43 -23 -106 -19 -287 18 -316 65 -667 217 -903 391 -34 25 -63
44 -65 42 -9 -9 154 -208 250 -304 223 -225 489 -388 822 -504 l138 -49 -1047
0 -1048 -1 0 1840 0 1840 263 0 263 0 73 -85z m1881 83 c0 -2 -7 -59 -16 -128
-24 -197 -30 -717 -10 -920 49 -512 177 -896 375 -1123 211 -244 483 -283 759
-110 46 29 86 53 88 53 2 0 4 -212 4 -470 l0 -470 -27 -11 c-16 -6 -71 -23
-123 -37 -85 -23 -113 -26 -270 -26 -162 0 -182 2 -263 27 -188 58 -330 143
-484 291 -574 547 -833 1612 -678 2781 9 66 18 126 20 133 3 9 75 12 315 12
170 0 310 -1 310 -2z m604 -15 c3 -10 13 -92 23 -183 22 -207 25 -774 5 -945
-37 -311 -102 -577 -188 -771 l-26 -58 -34 54 c-117 190 -212 505 -260 871
-30 232 -29 897 3 1027 l5 22 233 0 c214 0 234 -1 239 -17z"/>
<path d="M4740 1665 c0 -146 2 -265 5 -265 3 0 50 23 105 50 379 190 821 348
1246 445 l149 34 -752 0 -753 1 0 -265z"/>
<path d="M1045 839 c-288 -194 -707 -521 -905 -707 l-65 -61 1505 -1 1505 0
70 82 c171 199 516 523 750 702 50 38 94 73 99 78 6 4 -624 8 -1400 8 l-1409
0 -150 -101z"/>
</g>
</svg>
